<?xml version="1.0" encoding="utf-8"?>
<!DOCTYPE svg PUBLIC "-//W3C//DTD SVG 1.0//EN" "http://www.w3.org/TR/2001/REC-SVG-20010904/DTD/svg10.dtd">
<svg version="1.0" xmlns="http://www.w3.org/2000/svg" width="1518px" height="1518px" viewBox="0 0 1518 1518" preserveAspectRatio="xMidYMid meet">
 <g fill="#e53915">
  <path d="M729.5 1474.4 c-41.6 -2.5 -63.2 -4.8 -91.5 -9.4 -175.1 -28.9 -334.9 -123.3 -446.1 -263.5 -88.5 -111.6 -140.9 -243.1 -153.4 -385 -7.1 -80.4 -0.9 -160.7 18.5 -238.5 30.9 -123.7 92.2 -234.3 181.1 -326.5 116.8 -121 271.5 -197.3 437.9 -216 49.3 -5.5 105.8 -5.9 154 -0.9 116.2 11.9 225.5 50.5 322.5 114.1 181 118.7 299.2 310.8 322.5 524 3.1 28.9 4.2 49 4.2 79.8 0 31.2 -1.1 51.3 -4.3 80.5 -20.9 190.5 -116.8 363.9 -267.9 484.7 -112.2 89.6 -246.9 142.8 -392 154.8 -17.6 1.5 -72.7 2.7 -85.5 1.9z m53 -20.4 c42.3 -1.6 75.2 -5.5 115 -13.5 202.2 -40.8 377.8 -170.8 476.7 -353 45.9 -84.4 72.9 -173.6 82.4 -272 2.2 -23.4 2.8 -89.8 0.9 -113.1 -6.7 -84.5 -25.6 -159.7 -58.8 -234.4 -94.9 -213.7 -290.5 -366.3 -520.7 -406.4 -120.6 -21 -245.8 -10 -359.5 31.4 -107.5 39.2 -202.7 102.9 -279.9 187.6 -65.1 71.2 -116.3 158.3 -146.5 249.1 -18.4 55.2 -28.9 106.3 -34.3 167.3 -1.7 19.2 -1.7 91.5 0 111 8.4 94.9 31.4 177.4 72.3 259.1 59.1 118.3 153.2 219.8 266.4 287.6 101.3 60.7 216.1 95 332.5 99.2 11.3 0.4 22.1 0.8 24 0.9 1.9 0.1 15.2 -0.3 29.5 -0.8z"/>
  <path d="M711.5 1427.9 c-6 -0.5 -19.5 -1.8 -30 -2.9 -213.3 -23.3 -403.7 -148.7 -511.7 -337 -44.2 -77 -72.2 -161.2 -83.2 -250 -4 -32.6 -5 -48.2 -5 -84.5 -0.1 -36.3 1 -54.9 5 -86.5 22.1 -174.8 111.1 -332.9 249.7 -443.4 94.7 -75.5 207.5 -124 326.7 -140.5 99.9 -13.9 199.8 -5.8 296.1 24 55.3 17.1 113.1 44.1 162.9 76.1 195.3 125.6 311.9 338.7 312 569.8 0 128.1 -37.4 256.2 -106.1 363.5 -89 139 -226 241.4 -383 286.4 -40.4 11.6 -80.3 19.1 -126.2 23.7 -17.9 1.9 -90.1 2.7 -107.2 1.3z m75 -19.9 c71.7 -3.3 144 -18.4 206.8 -43 l10.9 -4.2 -17.3 -17.7 c-9.6 -9.7 -31.4 -31.8 -48.5 -49.1 -17.1 -17.3 -62.3 -63.2 -100.4 -102 -38.2 -38.8 -71.8 -72.9 -74.7 -75.8 -2.9 -3 -5.7 -5.2 -6.2 -5 -2 0.7 -246 249.3 -245.3 249.9 1 0.8 20.8 8.2 36.7 13.6 74.7 25.3 158 37 238 33.3z m-288.7 -224.2 l-0.3 -171.3 -171.2 -0.3 c-94.2 -0.1 -171.3 0 -171.3 0.2 0 1.4 17.5 37.6 23.8 49.1 33.1 61.1 69.8 110.2 118.4 158.1 21.2 21 32 30.6 51.9 46.4 42.6 33.9 86.9 61.1 136.9 84.1 5.8 2.7 10.8 4.9 11.3 4.9 0.4 0 0.6 -77.1 0.5 -171.2z m537.4 163.3 c119 -56 217.6 -145.2 285.3 -258.1 10.4 -17.5 35.4 -65.6 38.3 -73.8 l1.1 -3.2 -171.2 0.2 -171.2 0.3 -0.3 171.3 c-0.1 94.1 0.1 171.2 0.5 171.2 0.5 0 8.3 -3.6 17.5 -7.9z m-422.6 -126.3 c48.3 -49.1 96.1 -97.6 106.1 -107.8 l18.3 -18.5 0 -36.8 c0 -31.8 -0.2 -36.8 -1.5 -37.3 -0.8 -0.4 -1.5 -1.4 -1.5 -2.3 0 -1.4 2.4 -1.6 23.5 -1.6 21.3 -0.1 23.5 0.1 23.5 1.6 0 0.9 -0.7 1.9 -1.5 2.3 -1.3 0.5 -1.5 5.5 -1.5 37.3 l0 36.8 14.7 15 c8.1 8.3 29.4 29.9 47.3 48 17.9 18.2 59.1 59.9 91.4 92.8 32.4 32.8 59.2 59.7 59.6 59.7 0.9 0 1 -294 0.1 -295.6 -0.3 -0.7 -28.3 -29.2 -62.1 -63.5 -33.8 -34.3 -66.7 -67.7 -72.9 -74.2 -6.3 -6.4 -11.9 -11.7 -12.3 -11.7 -0.4 0 -0.8 0.7 -0.8 1.5 0 1.8 -1.6 1.9 -3.4 0.3 -1.1 -1 -1.3 -4.4 -0.9 -15.8 0.3 -8 0.9 -14.9 1.3 -15.5 0.5 -0.6 8.6 -1 20.7 -1 17.7 0 19.8 0.2 20.1 1.7 0.2 0.9 -0.4 1.8 -1.5 2 -1.3 0.2 18.5 20.9 71.1 74.6 l72.9 74.2 148.5 0 148.5 0 -4.9 -5.2 c-5.7 -6.2 -126.1 -129 -182.9 -186.5 l-21.9 -22.3 -42.8 0 c-38.3 0 -42.8 0.2 -42.8 1.6 0 0.9 -0.7 1.4 -1.7 1.2 -1.6 -0.3 -1.8 -2.3 -2.1 -23.1 -0.2 -21.9 -0.2 -22.7 1.7 -22.7 1.1 0 2.1 0.5 2.3 1 0.2 0.7 14.9 1 43.3 1 l43 0 15.5 -15.7 c8.5 -8.7 38.2 -39 66 -67.3 27.7 -28.3 62.8 -64.1 78 -79.5 15.2 -15.4 32.5 -33.1 38.5 -39.2 l10.9 -11.3 -148.5 0 -148.5 0 -25 25.3 c-48.7 49.1 -128.9 130.9 -129.2 131.7 -0.4 1.1 16.8 1.8 18.8 0.8 0.8 -0.3 32.6 -31.8 70.5 -69.9 l69 -69.3 84 -0.7 c46.2 -0.4 104.5 -0.8 129.5 -0.8 l45.5 -0.1 -90 90 -90 90 -40.8 0 -40.7 0 0 4 c0 3.3 -0.3 4 -2 4 -1.9 0 -2 -0.7 -2 -12.5 0 -7.7 0.4 -12.5 1 -12.5 0.6 0 1 0.5 1 1.2 0 0.8 9.7 0.9 38.8 0.4 l38.7 -0.7 74.5 -74.5 74.5 -74.4 -38.5 0.5 c-21.2 0.3 -69.8 0.7 -108 1 l-69.5 0.5 -61.7 61.7 c-34 34 -61.8 62 -61.8 62.3 0 0.3 17.9 0.5 39.8 0.5 l39.7 0 6 3 c3.3 1.6 8 3.6 10.5 4.5 4.1 1.4 4.5 1.8 4.9 5.5 0.3 2.2 0.6 30.1 0.6 62 l0 58 -2.3 4.5 c-3 5.8 -6.7 9.6 -11.7 12.3 -4 2.2 -4.4 2.2 -83 2.7 l-79 0.5 -0.5 78.5 c-0.6 87.8 -0.1 82.3 -7.8 90.4 -7.6 7.9 -4.8 7.6 -69.9 7.7 -38.9 0.1 -58.7 -0.3 -60.5 -1 -2.3 -0.9 -2.8 -0.8 -2.8 0.5 0 2.9 -2.5 0.8 -3.8 -3.2 -0.8 -2.1 -2.8 -6.8 -4.5 -10.4 l-3.2 -6.5 -0.3 -43.3 c-0.1 -23.8 -0.6 -43.2 -1 -43 -0.5 0.2 -29.4 29.3 -64.5 64.8 l-63.6 64.5 -0.1 107.5 0 107.5 21.8 -22 c12 -12.1 46.6 -47.2 77 -78 l55.2 -56 0 -34.7 c0 -22.6 -0.4 -34.8 -1 -34.8 -0.5 0 -1 -0.7 -1 -1.5 0 -1.2 1.5 -1.5 7.4 -1.5 9.2 0 13.6 0.8 13.6 2.6 0 0.8 -0.7 1.4 -1.5 1.4 -1.3 0 -1.5 4.8 -1.5 37.2 l0 37.1 -29.2 29.6 c-16.1 16.3 -43 43.6 -59.8 60.6 -51 51.9 -95.4 96.5 -96 96.5 -0.3 0 -0.5 -58 -0.4 -128.9 l0.1 -128.9 72.1 -73.2 72.2 -73.2 0 -11.6 0 -11.7 -51.2 52 c-28.2 28.6 -63.7 64.6 -79 80 l-27.8 28 0 148.3 c0 81.5 0.2 148.2 0.4 148.2 0.2 0 39.9 -40.2 88.2 -89.2z m-343.6 -346.7 l119.2 -121.4 -24.4 -24.6 c-13.4 -13.5 -48.2 -48.9 -77.3 -78.6 -29.1 -29.7 -64.9 -66.1 -79.5 -81 -14.7 -14.8 -33.6 -34.1 -42 -42.8 -8.5 -8.6 -15.8 -15.6 -16.4 -15.4 -1.3 0.4 -9.4 22.2 -16 43.2 -14.1 44.5 -23.3 89.6 -28.3 138.5 -2.2 22.2 -2.5 93.7 -0.5 115.5 5.3 56.1 15.1 103.2 31.6 153 7.9 23.8 12.5 35.7 13.6 35.3 0.5 -0.2 54.5 -54.9 120 -121.7z m1101 113.7 c23.1 -60.3 36.9 -123.5 42 -191.6 1.3 -18.4 1.3 -67.4 0 -86.7 -3.3 -47.3 -11.1 -92.4 -23.4 -135.3 -7.4 -25.6 -20.9 -64.2 -22.5 -64.2 -0.4 0 -43 43.1 -94.7 95.7 -51.6 52.7 -105.3 107.4 -119.3 121.5 l-25.4 25.8 28 28.2 c28.1 28.5 168.1 171.2 195.7 199.6 8.2 8.3 15.2 15.2 15.7 15.2 0.4 0 2.1 -3.7 3.9 -8.2z m-835 -45 c23.9 -24.4 56.7 -57.8 72.9 -74.3 20.8 -21.1 29 -30.1 27.8 -30.3 -2.8 -0.6 -1.9 -3 1.4 -3.7 1.6 -0.4 7.7 -0.4 13.5 0 13.4 0.9 27.4 -0.1 27.4 -2.1 0 -0.8 -0.1 -1.5 -0.2 -1.6 -0.2 -0.2 -35.8 -0.5 -79.3 -0.8 -70.8 -0.4 -79.3 -0.7 -82.2 -2.1 -2.3 -1.2 -3.3 -1.4 -3.6 -0.5 -1.2 3.1 -6.7 -9.4 -6.7 -15.3 0 -1.4 -0.3 -3.7 -0.7 -5 l-0.6 -2.4 -44.5 0.5 -44.4 0.6 -74.4 74.3 c-40.9 40.9 -74.2 74.4 -74.1 74.5 0.1 0 48.6 -0.3 107.7 -0.8 l107.5 -0.9 57 -57.1 c38.9 -39 56.5 -57.3 55.4 -57.5 -1.1 -0.3 -1.5 -1.1 -1.2 -2.4 0.5 -1.8 1.4 -1.9 14.2 -1.7 12 0.3 13.6 0.5 13.9 2.1 0.2 1.1 -0.3 1.7 -1.5 1.7 -1 0 -28.8 27 -66.8 65 l-65 65 -25 0.5 c-13.8 0.2 -72 0.7 -129.5 1.1 l-104.5 0.6 90 -90.1 89.9 -90 47 -0.1 c25.9 0 47.4 -0.4 47.9 -0.9 0.4 -0.4 0.7 -4.1 0.5 -8.2 l-0.3 -7.4 -50 -0.3 -50.1 -0.2 -23.5 23.7 c-12.9 13.1 -35.2 35.7 -49.4 50.3 -24.8 25.2 -44 44.8 -105 106.9 -31.1 31.6 -31.5 32 -31.5 32.6 0 0.3 66.7 0.5 148.3 0.5 l148.3 0 43.4 -44.2z m-30.2 -218.5 l-0.3 -7.8 -47.5 -0.3 -47.5 -0.2 -90 -90 -90 -90 46 0.1 c25.3 0 83.5 0.4 129.2 0.7 l83.3 0.7 69.7 69.7 69.8 69.8 9.9 0.4 9.9 0.4 -4.4 -4.6 c-6.8 -7.2 -75.7 -77.5 -129.4 -131.9 l-21.9 -22.3 -148.5 0 -148.5 0 9.5 9.8 c5.1 5.3 32.4 33.1 60.4 61.7 28.1 28.6 70.8 72.1 95 96.8 l43.9 44.7 50.8 0 50.9 0 -0.3 -7.7z m1.1 -28.2 c1.6 -6.2 6.8 -12.4 13.5 -15.9 l5.1 -2.7 40.7 0 c35.8 0 40.5 -0.2 39.8 -1.5 -0.5 -0.8 -28.3 -28.8 -61.7 -62.2 l-60.8 -60.7 -68.5 -0.6 c-37.7 -0.3 -86.3 -0.7 -108 -1 l-39.5 -0.6 74.5 74.5 74.4 74.6 16.1 0.3 c8.8 0.1 28.9 0.4 44.6 0.5 l28.5 0.2 1.3 -4.9z m333.1 -43.7 c0 -19.5 0.1 -20.4 1.9 -20.4 1.7 0 2 0.8 2.3 4.8 l0.3 4.7 4 -4 c18 -18 135.2 -137.2 139 -141.3 l4.9 -5.3 0.3 -147.1 c0.1 -80.9 0.1 -147.4 -0.2 -147.8 -0.4 -0.7 -24.6 23.5 -103 103 -18.7 19 -48.2 48.9 -65.5 66.5 -17.4 17.6 -34.6 35.1 -38.3 38.9 l-6.7 7 0 44.3 0 44.3 7.3 0 7.2 0 0 -42.2 0 -42.2 91.9 -93.3 c50.6 -51.3 92.3 -93.3 92.8 -93.3 0.4 0 0.8 57.9 0.8 128.8 l-0.1 128.7 -27.7 28.1 c-80.3 81.3 -107.2 108.9 -107.2 110.1 0 0.7 -0.7 1.3 -1.5 1.3 -1.7 0 -2.2 -3.1 -2.9 -16.7 -0.6 -13.6 0.1 -18.3 2.5 -18.3 1.6 0 1.9 0.8 1.9 4.5 0 2.5 0.3 4.5 0.7 4.5 0.3 0 16.2 -15.9 35.3 -35.2 19 -19.4 45.5 -46.3 58.8 -59.8 l24.1 -24.5 0.1 -107.5 0 -107.5 -8.8 9 c-4.9 5 -39.6 40.1 -77 78.1 l-68.2 69.2 0 39 0 39.1 3.8 0.6 c9.4 1.6 13.6 2.6 17.2 4.5 3.6 1.8 5.3 4 3.2 4 -0.5 0 -0.1 2.4 0.9 5.3 1.7 4.8 1.8 10.5 1.9 81.9 0 77.1 0.1 78.9 3.3 77.1 0.4 -0.2 0.7 -9.6 0.7 -20.9z m-157 -9.6 l-0.1 -9.3 -19.7 -20.1 c-15.2 -15.5 -119.7 -121.6 -123.9 -125.7 -0.9 -1 -1.1 -258.7 -0.2 -258.7 0.4 0 42.1 42 92.8 93.4 l92.1 93.5 0 42 0 42.1 7 0 7 0 0 -44.2 0 -44.2 -8.7 -9 c-13 -13.5 -134.8 -137.1 -172 -174.6 l-32.3 -32.5 -0.2 148 -0.3 148 34.1 34.5 c18.7 19 54.2 55.1 79 80.2 24.7 25.2 45 45.8 45.2 45.8 0.1 0 0.2 -4.2 0.2 -9.2z m0.2 -78.5 l0.3 -45.8 2.7 -4.7 c3.8 -6.3 9.1 -10.5 16 -12.6 l5.8 -1.7 0 -38.9 0 -38.9 -54.7 -55.4 c-30.2 -30.5 -64.8 -65.7 -77 -78.1 l-22.2 -22.7 0 107.5 0 107.5 63.7 64.7 c35 35.6 64 64.8 64.4 64.8 0.4 0 0.9 -20.6 1 -45.7z m-184.4 -242.3 c0.2 -136.5 0 -171 -1 -171 -1.9 0 -43.4 20.6 -58.9 29.2 -119.8 66.6 -217.8 172.1 -275.4 296.4 -4 8.8 -7.2 16.1 -7 16.4 0.2 0.3 77.2 0.4 171.2 0.3 l170.8 -0.3 0.3 -171z m861.4 171 c0.6 0 -2.5 -6.9 -12.9 -28.9 -20.9 -44.2 -59 -101.8 -91.9 -139.1 -16.4 -18.6 -21.8 -24.3 -34.4 -36.9 -49.5 -49.2 -107.1 -90.6 -168.7 -121.4 -12.6 -6.4 -32.8 -15.7 -33.8 -15.7 -0.6 0 -0.7 341.5 -0.1 342.1 0.3 0.3 306.7 0.2 341.8 -0.1z m-567.6 -131.9 c18.2 -18.5 73.1 -74.3 122.1 -124.1 49 -49.8 89.3 -90.9 89.5 -91.3 0.3 -1 -9.6 -4.9 -31.2 -12.5 -129.9 -45.5 -275.3 -48 -407.9 -7.2 -21.1 6.5 -51.3 17.6 -52.2 19.2 -0.4 0.6 39.4 41.2 175.4 179 35.6 36.1 65.7 66.8 66.8 68.2 1.1 1.4 2.6 2.5 3.2 2.4 0.7 0 16.1 -15.2 34.3 -33.7z"/>
  <path d="M916.4 1220.3 c-32.9 -33.5 -74 -75.1 -91.4 -92.6 -17.3 -17.5 -31.7 -32.1 -32 -32.3 -0.3 -0.3 -0.5 -17.3 -0.5 -37.7 -0.1 -28.1 -0.4 -37.2 -1.3 -37.5 -0.7 -0.2 -1.2 -1 -1.2 -1.8 0 -1 1.2 -1.4 3.8 -1.4 2 0 6.7 -0.3 10.5 -0.7 6.4 -0.6 6.7 -0.5 6.7 1.6 0 1.2 -0.6 2.1 -1.5 2.1 -1.3 0 -1.5 4.5 -1.5 34.1 l0 34.2 55.4 56.1 c30.4 30.8 65 66 76.9 78.1 l21.6 22 0 -107.5 0 -107.5 -29.6 -30 c-82.7 -83.9 -88.8 -89.9 -89.1 -88.2 -0.4 2.2 -2.9 2.2 -3.6 0 -0.2 -1 -0.5 -8.2 -0.5 -16 0 -13.5 0.1 -14.3 2 -14.3 1.4 0 1.9 0.7 1.9 2.9 0 3 8.7 12.1 102.7 107.1 l32.2 32.5 0.1 128.8 c0 70.8 -0.4 128.7 -0.9 128.7 -0.4 0 -27.8 -27.3 -60.7 -60.7z"/>
  <path d="M1104 969 l-76.5 -0.6 -64.5 -64.7 c-35.5 -35.6 -65.5 -65 -66.8 -65.3 -1.4 -0.4 -2.2 -1.3 -2 -2.3 0.3 -1.4 2.2 -1.6 14.1 -1.8 12.7 -0.1 13.7 0 13.7 1.7 0 1 -0.6 2 -1.2 2.3 -0.8 0.3 23.4 25.2 55.6 57.5 l56.9 57 64.6 0.6 c35.5 0.3 84.1 0.8 108 1 l43.3 0.3 -74.4 -74.4 -74.4 -74.4 -37.7 -0.6 -37.7 -0.6 0 2.6 c0 2 -0.5 2.7 -2 2.7 -1.9 0 -2 -0.7 -2 -13 0 -12.3 0.1 -13 2 -13 1.6 0 2 0.7 2 3 l0 2.9 41 0.3 41 0.3 89.7 89.8 89.8 89.7 -53 -0.2 c-29.2 -0.1 -87.4 -0.5 -129.5 -0.8z"/>
 </g>
 <g fill="#d33414">
  <path d="M735.9 1020.6 c-0.2 -0.2 -7 -0.7 -15.2 -1 -16.7 -0.6 -20.2 -1.8 -25.7 -8.3 -6.1 -7.2 -7.3 -14.6 -1.8 -11.1 5.8 3.7 8 3.9 64.2 3.8 61.7 0 59.3 0.3 66.8 -7.6 7.7 -8.1 7.2 -2.6 7.8 -90.4 l0.5 -78.5 79 -0.5 c78.6 -0.5 79 -0.5 83 -2.7 5 -2.7 8.7 -6.5 11.7 -12.3 l2.3 -4.5 0 -56 0 -56 -3.3 -5.8 c-1.8 -3.1 -2.8 -5.7 -2.2 -5.7 2.8 0 11.9 5.1 14.7 8.3 5.5 6.2 6 8.1 6.7 24.1 0.4 8.2 0.9 15.3 1.2 15.7 0.3 0.5 0 0.9 -0.6 0.9 -0.7 0 -0.9 12 -0.7 41.3 0.5 45.3 0.3 47.1 -5.5 54.1 -1.6 2 -5.1 4.8 -7.6 6.4 l-4.7 2.7 -43.8 0.5 c-24 0.3 -43.7 0.3 -43.7 0 0 -0.9 -75.2 -0.2 -76.1 0.7 -0.9 1 -1.7 24.3 -0.7 24.3 0.3 0 0.6 30.9 0.5 68.8 l-0.2 68.7 -3 5.5 c-3.4 6.1 -9.7 11.4 -15.3 12.9 -2 0.6 -9.5 1 -16.7 1.1 -7.1 0 -16.7 0.1 -21.3 0.2 -4.5 0.2 -8.2 0.1 -8.2 -0.2 0 -0.8 -40.5 -0.6 -41.1 0.3 -0.3 0.4 -0.7 0.5 -1 0.3z"/>
  <path d="M560.5 838 c-34.5 -0.5 -36.2 -0.6 -40 -2.7 -2.2 -1.1 -5.2 -3.4 -6.7 -5 -3.2 -3.3 -7.2 -11.9 -6.3 -13.3 0.4 -0.6 2.7 0.8 5.5 3.3 2.6 2.4 6.6 4.9 8.8 5.5 2.9 0.9 24.2 1.2 80.3 1.2 42 0 76.9 0.4 77.5 0.8 1.5 1 2.4 6.5 1.4 8.2 -0.8 1.3 -7.2 1.5 -42.2 1.5 -22.7 0 -41.5 0.2 -41.8 0.5 -0.3 0.3 -16.7 0.3 -36.5 0z"/>
  <path d="M833.1 676.1 c-1.2 -0.8 -1.4 -12.4 -1.2 -76.8 0.2 -86.1 0.5 -82.4 -7.6 -91.5 -2.5 -2.9 -4.1 -5.4 -3.6 -5.5 2.3 -0.8 12.3 4.9 15.7 8.8 6.5 7.6 6.7 9.3 6.6 50.7 -0.1 20.4 0.1 37.6 0.5 38.1 0.3 0.6 0 0.9 -0.7 0.6 -2.1 -0.8 -1.2 18.7 0.9 19.9 1 0.5 1.2 1.1 0.5 1.5 -1.2 0.7 -2 17.1 -0.8 18.9 0.4 0.6 0.3 1.2 -0.3 1.2 -0.7 0 -1.2 6.2 -1.3 17.3 l-0.3 17.2 -3.5 0.3 c-1.9 0.1 -4.1 -0.2 -4.9 -0.7z"/>
 </g>
</svg>